<svg width="1920" height="910" viewBox="0 0 1920 910" fill="none" xmlns="http://www.w3.org/2000/svg">
<g filter="url(#filter0_ii_555_5834)">
<path fill-rule="evenodd" clip-rule="evenodd" d="M-210.635 854.548C-216.835 852.622 -221 846.856 -221 840.363V114.337C-221 103.721 -210.282 96.4718 -200.484 100.557C-158.188 118.194 -112.545 139.273 -63.4999 163.793C273.618 332.334 472.666 252.996 718.373 155.06C911.795 77.9635 1134.13 -10.6574 1475.5 1.04758C1685.41 8.24523 1862.85 57.88 2007.85 130.844C2012.87 133.372 2016 138.524 2016 144.148V819.789C2016 831.809 2002.56 838.968 1992.5 832.388C1868.08 750.99 1716.93 674.276 1530 674.276C1273.23 674.276 1127.25 727.499 974.113 783.329C805.203 844.911 627.593 909.665 283 909.665C69.7165 909.665 -89.7387 892.094 -210.635 854.548Z" fill="url(#paint0_linear_555_5834)"/>
</g>
<defs>
<filter id="filter0_ii_555_5834" x="-231" y="-10" width="2257" height="929.665" filterUnits="userSpaceOnUse" color-interpolation-filters="sRGB">
<feFlood flood-opacity="0" result="BackgroundImageFix"/>
<feBlend mode="normal" in="SourceGraphic" in2="BackgroundImageFix" result="shape"/>
<feColorMatrix in="SourceAlpha" type="matrix" values="0 0 0 0 0 0 0 0 0 0 0 0 0 0 0 0 0 0 127 0" result="hardAlpha"/>
<feOffset dx="10" dy="10"/>
<feGaussianBlur stdDeviation="10"/>
<feComposite in2="hardAlpha" operator="arithmetic" k2="-1" k3="1"/>
<feColorMatrix type="matrix" values="0 0 0 0 0.419608 0 0 0 0 0.470588 0 0 0 0 0.592157 0 0 0 0.38 0"/>
<feBlend mode="normal" in2="shape" result="effect1_innerShadow_555_5834"/>
<feColorMatrix in="SourceAlpha" type="matrix" values="0 0 0 0 0 0 0 0 0 0 0 0 0 0 0 0 0 0 127 0" result="hardAlpha"/>
<feOffset dx="-10" dy="-10"/>
<feGaussianBlur stdDeviation="10"/>
<feComposite in2="hardAlpha" operator="arithmetic" k2="-1" k3="1"/>
<feColorMatrix type="matrix" values="0 0 0 0 1 0 0 0 0 1 0 0 0 0 1 0 0 0 0.17 0"/>
<feBlend mode="normal" in2="effect1_innerShadow_555_5834" result="effect2_innerShadow_555_5834"/>
</filter>
<linearGradient id="paint0_linear_555_5834" x1="897.5" y1="0" x2="897.5" y2="909.665" gradientUnits="userSpaceOnUse">
<stop stop-color="#547EEC"/>
<stop offset="1" stop-color="#3A9FE9"/>
</linearGradient>
</defs>
</svg>
